<?xml version="1.0" encoding="UTF-8"?>
<svg version="1.1" xmlns="http://www.w3.org/2000/svg" width="1024" height="1024">
<path d="M0 0 C337.92 0 675.84 0 1024 0 C1024 337.92 1024 675.84 1024 1024 C686.08 1024 348.16 1024 0 1024 C0 686.08 0 348.16 0 0 Z " fill="#FEFEFE" transform="translate(0,0)"/>
<path d="M0 0 C9.1925701 6.76017182 15.886992 16.32273026 18.2734375 27.671875 C19.16537518 42.42540153 17.62099912 53.70881561 8.2734375 65.671875 C7.79519531 66.28804688 7.31695313 66.90421875 6.82421875 67.5390625 C0.9169905 74.23491316 -9.73442604 80.06030558 -18.75024414 80.84887695 C-33.2257847 81.26407072 -43.98603257 79.84555904 -55.7265625 70.671875 C-56.34273437 70.19363281 -56.95890625 69.71539062 -57.59375 69.22265625 C-64.59763044 63.04367729 -69.50693568 53.71774256 -70.31298828 44.43481445 C-70.39332306 43.54091507 -70.47365784 42.64701569 -70.556427 41.72602844 C-70.61257172 41.04815781 -70.66871643 40.37028717 -70.7265625 39.671875 C-71.34314728 39.55314026 -71.95973206 39.43440552 -72.59500122 39.31207275 C-88.22699725 36.28501842 -103.74820487 32.90988846 -119.23730469 29.22265625 C-122.67537108 28.40430663 -126.11489725 27.59232041 -129.5546875 26.78125 C-131.75529224 26.26077129 -133.95581639 25.73995172 -136.15625 25.21875 C-137.68872879 24.85629181 -137.68872879 24.85629181 -139.25216675 24.48651123 C-140.19230621 24.2624762 -141.13244568 24.03844116 -142.10107422 23.80761719 C-142.92501678 23.61174011 -143.74895935 23.41586304 -144.59786987 23.21405029 C-146.32781888 22.77343449 -148.03299252 22.23639833 -149.7265625 21.671875 C-149.97801025 22.89640381 -150.22945801 24.12093262 -150.48852539 25.38256836 C-151.8412923 31.45688472 -153.68702049 37.36195136 -155.53515625 43.30078125 C-155.9025441 44.4898558 -156.26993195 45.67893036 -156.64845276 46.90403748 C-157.6195119 50.04334154 -158.59389787 53.1815886 -159.56958008 56.31945801 C-160.16388582 58.23380588 -160.75585552 60.14885923 -161.34692383 62.06420898 C-162.49026475 65.76891971 -163.63706418 69.47254045 -164.78515625 73.17578125 C-165.31030067 74.87608238 -165.31030067 74.87608238 -165.84605408 76.61073303 C-167.64046498 82.37296786 -169.53620708 88.04775889 -171.7265625 93.671875 C-170.67339844 93.62933594 -169.62023437 93.58679688 -168.53515625 93.54296875 C-128.58390631 93.60428398 -74.18237216 113.14358358 -44.61328125 140.66015625 C-41.7164616 142.21352331 -39.85835142 141.47577702 -36.7265625 140.671875 C-34.35714212 139.88295663 -32.00288697 139.04734357 -29.6640625 138.171875 C-14.4465547 132.48802844 3.2056477 132.76933539 18.2734375 138.890625 C34.52800424 146.35445667 45.58123599 158.74670969 52.12109375 175.3046875 C57.93357909 192.28896669 56.00400175 209.62437979 48.7109375 225.859375 C43.33369996 235.93490594 33.33655449 247.52529276 22.55078125 251.734375 C20.12175868 253.40305257 20.12175868 253.40305257 19.84765625 255.64819336 C19.69336722 258.30994696 19.68483942 260.94328608 19.7109375 263.609375 C18.9590021 303.60314453 0.38047895 338.03641539 -27.7421875 365.65625 C-33.49532262 371.1856322 -39.54790328 376.237792 -45.9140625 381.046875 C-46.54272217 381.52253906 -47.17138184 381.99820312 -47.8190918 382.48828125 C-51.42550851 385.15217007 -55.12403295 387.55308023 -58.9777832 389.84619141 C-60.31556572 390.64375351 -60.31556572 390.64375351 -61.68037415 391.45742798 C-62.3556163 391.8581955 -63.03085846 392.25896301 -63.7265625 392.671875 C-62.64185669 392.67552063 -61.55715088 392.67916626 -60.4395752 392.68292236 C-50.19945237 392.71992071 -39.95962892 392.77774639 -29.71973419 392.85577774 C-24.45572187 392.8952269 -19.1918762 392.92742803 -13.92773438 392.94287109 C-8.84413441 392.95805442 -3.76099267 392.99253005 1.32240295 393.04018402 C3.25834665 393.05498048 5.19435578 393.06291502 7.13035583 393.06375885 C9.84976616 393.06613548 12.5679173 393.09327068 15.28710938 393.12597656 C16.08121216 393.1209462 16.87531494 393.11591583 17.69348145 393.11073303 C24.29598998 393.23297713 29.41985451 395.26779446 34.48046875 399.53125 C39.17880667 405.0640859 41.85617431 409.84696246 42.6484375 417.109375 C40.96105434 433.13951501 27.50381189 442.40172786 16.21497726 452.51717377 C-0.98820818 467.94608708 -17.87957232 483.6972468 -34.63557526 499.60913756 C-37.13107683 501.97830238 -39.62880881 504.34510283 -42.12792969 506.71044922 C-42.87353687 507.41625505 -42.87353687 507.41625505 -43.63420683 508.13631959 C-50.60592789 514.72704118 -57.68067329 521.18622536 -64.85461354 527.55595186 C-119.79615307 573.95305006 -119.79615307 573.95305006 -143.25683689 638.87064004 C-144.15764352 657.24103544 -142.90336924 675.84232756 -140.2512207 694.03378677 C-140.06469523 695.356191 -140.06469523 695.356191 -139.87440157 696.70531046 C-139.63714559 698.33221692 -139.37855651 699.95622866 -139.09368849 701.575477 C-138.49624906 705.59539998 -138.61665603 707.46776362 -140.56980133 711.0950222 C-142.37367907 713.25025732 -143.96462941 714.97363408 -146.203125 716.64453125 C-146.8643335 717.1446875 -147.52554199 717.64484375 -148.20678711 718.16015625 C-148.91456299 718.67964844 -149.62233887 719.19914063 -150.3515625 719.734375 C-151.09865479 720.29382813 -151.84574707 720.85328125 -152.61547852 721.4296875 C-154.97643721 723.19025226 -157.3489129 724.93392986 -159.7265625 726.671875 C-160.47373535 727.21827637 -161.2209082 727.76467773 -161.99072266 728.32763672 C-167.2158537 732.13722183 -172.46880238 735.90751623 -177.7265625 739.671875 C-187.53171392 746.69869514 -197.26642192 753.77293776 -206.79443359 761.17285156 C-210.97121807 764.41336921 -215.1586507 767.63975847 -219.3515625 770.859375 C-220.63994019 771.85771362 -220.63994019 771.85771362 -221.9543457 772.8762207 C-240.90750612 787.40679636 -240.90750612 787.40679636 -249.7265625 786.671875 C-254.68405214 784.19313018 -256.68131337 781.76336511 -258.7265625 776.671875 C-258.80685234 773.58310604 -258.80685234 773.58310604 -258.39181519 770.22996521 C-258.24655458 768.94905691 -258.10129398 767.66814861 -257.95163155 766.34842491 C-257.86650189 765.66272069 -257.78137223 764.97701646 -257.69366288 764.27053332 C-257.22755468 760.47146199 -256.83541256 756.66453737 -256.4364624 752.85792542 C-256.350108 752.04353359 -256.2637536 751.22914176 -256.1747824 750.39007139 C-254.36287399 733.01195526 -253.37783632 715.56089412 -252.6015625 698.109375 C-252.53678475 696.66948637 -252.53678475 696.66948637 -252.47069836 695.20050907 C-250.33841502 645.79948487 -252.92297226 605.223488 -287.37227249 567.47723961 C-295.73005302 558.49197014 -304.66680125 550.17511068 -313.8515625 542.046875 C-314.49564654 541.47532732 -315.13973059 540.90377963 -315.80333233 540.31491232 C-330.33382879 527.45218288 -345.26683664 515.13189827 -360.94935417 503.69489193 C-365.95531107 500.00504971 -370.21537161 496.33204351 -374.17960548 491.53449059 C-376.50192932 488.73829358 -379.07685962 486.22791025 -381.67431641 483.68994141 C-382.22326065 483.1488826 -382.7722049 482.60782379 -383.33778381 482.05036926 C-384.51414968 480.89102548 -385.69158459 479.73276557 -386.87001419 478.57551956 C-389.38706485 476.10107458 -391.89434956 473.61682747 -394.40234947 471.13321495 C-399.05380449 466.52721163 -403.70906032 461.92521984 -408.38085938 457.33984375 C-411.64835327 454.13204822 -414.90323469 450.9119089 -418.15037155 447.68351364 C-419.38090355 446.46464359 -420.6159341 445.25029622 -421.85570145 444.04082108 C-437.49725781 428.77210178 -437.49725781 428.77210178 -438.3515625 417.171875 C-437.95363321 409.56819918 -434.86831891 403.27044261 -429.2265625 398.171875 C-423.90386016 393.85345612 -418.67304043 393.37076015 -411.98901367 393.35302734 C-411.12021576 393.34298172 -410.25141785 393.3329361 -409.35629272 393.32258606 C-406.49404542 393.2917766 -403.63189157 393.2747251 -400.76953125 393.2578125 C-398.78126727 393.23909906 -396.79301121 393.21952551 -394.80476379 393.1991272 C-389.57863032 393.14781866 -384.3524711 393.10818601 -379.1262207 393.07098389 C-373.79046263 393.0309363 -368.45481153 392.97984737 -363.11914062 392.9296875 C-352.65502308 392.8329433 -342.19084511 392.74853361 -331.7265625 392.671875 C-332.73251465 392.00655762 -333.7384668 391.34124023 -334.77490234 390.65576172 C-336.12082576 389.76278202 -337.4666884 388.86971071 -338.8125 387.9765625 C-339.80237915 387.32240356 -339.80237915 387.32240356 -340.81225586 386.6550293 C-352.36347996 378.98024549 -362.7669651 370.30306561 -372.7265625 360.671875 C-373.2930249 360.12950195 -373.8594873 359.58712891 -374.44311523 359.02832031 C-396.82421297 337.20543929 -413.09632098 306.31172052 -415.3828125 274.94140625 C-415.43495911 274.27017227 -415.48710571 273.59893829 -415.54083252 272.90736389 C-415.79632425 269.55234214 -415.99832167 266.21460111 -416.12402344 262.85083008 C-416.36838416 256.17843569 -416.36838416 256.17843569 -419.62866211 250.65332031 C-421.93147937 249.14949879 -424.27627377 247.91634341 -426.7265625 246.671875 C-439.17856587 237.04237254 -448.61409434 222.38358264 -450.7265625 206.671875 C-452.41537028 188.558446 -449.65182495 172.69153901 -438.7265625 157.671875 C-428.87445097 146.13991035 -415.92945393 137.27901155 -400.7265625 134.671875 C-384.25401546 133.56442048 -370.5854488 135.27168162 -355.7265625 142.671875 C-355.27555176 142.33043457 -354.82454102 141.98899414 -354.35986328 141.63720703 C-343.28510434 133.30811773 -332.0705538 125.97437133 -319.7265625 119.671875 C-319.02708496 119.31254883 -318.32760742 118.95322266 -317.60693359 118.58300781 C-293.27365779 106.2313801 -266.60643256 98.84417718 -239.7265625 94.671875 C-239.03852539 94.56391602 -238.35048828 94.45595703 -237.64160156 94.34472656 C-228.37336667 92.93527149 -219.05096226 92.29266728 -209.70703125 91.6171875 C-207.83162659 91.48002319 -207.83162659 91.48002319 -205.91833496 91.34008789 C-202.8544947 91.11617217 -199.79057158 90.89346661 -196.7265625 90.671875 C-196.49598648 89.94256271 -196.26541046 89.21325043 -196.02784729 88.46183777 C-193.81059658 81.44998525 -191.59127205 74.43879361 -189.36984348 67.42826366 C-188.22897227 63.82759458 -187.08879413 60.2267097 -185.95043945 56.62524414 C-183.53727171 48.99206052 -181.11392974 41.36230757 -178.6678257 33.73960686 C-177.38083869 29.72684293 -176.10801429 25.70995713 -174.84586811 21.68931484 C-173.86928944 18.59228595 -172.87251724 15.50175493 -171.87890625 12.41015625 C-171.53235489 11.29239304 -171.18580353 10.17462982 -170.82875061 9.022995 C-168.97744669 3.33457836 -167.51804645 -0.62361408 -162.7265625 -4.328125 C-155.53947231 -7.9216701 -143.17651654 -2.67993644 -135.875 -0.87109375 C-134.44802714 -0.52280341 -133.02091016 -0.17510305 -131.59365845 0.17204285 C-127.85342934 1.08348328 -124.11524798 2.00306026 -120.37744141 2.92437744 C-116.62136824 3.84858821 -112.86331473 4.76467043 -109.10546875 5.68164062 C-101.64325193 7.50449429 -94.18251805 9.33314666 -86.72576141 11.17822647 C-84.57254968 11.70990433 -82.4184932 12.23808805 -80.26446533 12.76644897 C-78.80078874 13.12761205 -77.33714445 13.4889061 -75.87353516 13.8503418 C-75.18754431 14.01786107 -74.50155346 14.18538034 -73.79477501 14.35797596 C-68.95395554 15.55817848 -68.95395554 15.55817848 -66.7265625 16.671875 C-66.5409375 16.011875 -66.3553125 15.351875 -66.1640625 14.671875 C-61.65332649 5.25816506 -52.57365867 -2.12740231 -42.9140625 -5.703125 C-41.19428539 -6.2739024 -39.46551877 -6.81876143 -37.7265625 -7.328125 C-37.08203125 -7.52019531 -36.4375 -7.71226563 -35.7734375 -7.91015625 C-23.22979363 -10.47154918 -10.53861736 -6.88932268 0 0 Z " fill="#020303" transform="translate(710.7265625,119.328125)"/>
<path d="M0 0 C1.02040375 0.00215515 2.0408075 0.0043103 3.09213257 0.00653076 C17.71725491 0.0561585 32.07349138 0.29500933 46.4375 3.3125 C47.42830566 3.51649414 48.41911133 3.72048828 49.43994141 3.93066406 C86.48370619 11.76235091 123.38666775 25.93463065 151.3203125 52.31640625 C153.27668016 54.16087834 155.29823386 55.85688283 157.375 57.5625 C180.90799815 78.20131894 194.37265142 109.30204827 196.7265625 140.09375 C197.52654011 173.54735915 184.21821143 203.30039876 161.4375 227.3125 C160.11298828 228.73369141 160.11298828 228.73369141 158.76171875 230.18359375 C124.83006555 265.87466601 73.29674988 283.25416757 25.4375 288.3125 C24.56988037 288.4067627 23.70226074 288.50102539 22.80834961 288.59814453 C2.93217263 290.59954648 -16.88764256 289.54005307 -36.5625 286.3125 C-37.84664795 286.10367188 -37.84664795 286.10367188 -39.15673828 285.890625 C-89.25085761 277.44878394 -141.52205526 253.85334503 -172.18359375 211.7890625 C-179.59234582 201.19992362 -185.54228649 189.59631352 -189.5625 177.3125 C-189.87791748 176.36044678 -189.87791748 176.36044678 -190.19970703 175.38916016 C-199.1430819 146.91623035 -193.95952073 116.16520463 -180.46289062 90.19677734 C-175.72788587 81.49149206 -170.13614322 73.74028436 -163.5625 66.3125 C-163.13710938 65.82152832 -162.71171875 65.33055664 -162.2734375 64.82470703 C-155.93151776 57.51620084 -149.26192297 51.21935044 -141.5625 45.3125 C-140.67433594 44.59707031 -139.78617187 43.88164062 -138.87109375 43.14453125 C-130.02724211 36.19491209 -120.43703854 30.65898067 -110.5625 25.3125 C-109.89186523 24.94769531 -109.22123047 24.58289063 -108.53027344 24.20703125 C-87.09881904 12.78567424 -62.4617037 5.95577484 -38.5625 2.3125 C-36.83543823 2.03756714 -36.83543823 2.03756714 -35.07348633 1.75708008 C-23.38821105 0.07774569 -11.7904698 -0.04470298 0 0 Z " fill="#FE4D19" transform="translate(511.5625,234.6875)"/>
<path d="M0 0 C142.56 0 285.12 0 432 0 C430.36957887 3.26084227 429.48432637 4.76444958 427.04486179 7.19285393 C426.43661896 7.80322876 425.82837613 8.41360359 425.2017017 9.04247463 C424.53254874 9.70375555 423.86339578 10.36503647 423.17396545 11.0463562 C422.46383519 11.75607862 421.75370493 12.46580103 421.02205557 13.19703019 C418.63537641 15.5799714 416.24162812 17.95568388 413.84790039 20.33154297 C412.13775897 22.03621041 410.42807863 23.7413405 408.71882629 25.44689941 C405.03405552 29.12194924 401.34634259 32.79401963 397.6561451 36.46361923 C392.31596552 41.77426422 386.98274632 47.09185644 381.65149229 52.41145994 C372.99532463 61.04861313 364.33579791 69.68238909 355.6730957 78.31298828 C355.15464667 78.82951938 354.63619763 79.34605048 354.10203802 79.87823404 C348.31860202 85.64012654 342.53435466 91.4012035 336.74920654 97.16137695 C334.65188682 99.2496651 332.5545746 101.33796078 330.45727539 103.42626953 C329.93975982 103.94156345 329.42224424 104.45685737 328.88904638 104.98776625 C320.2581799 113.58190329 311.63314569 122.18186772 303.01265901 130.78641617 C297.69607899 136.09266545 292.37451811 141.39382195 287.04643571 146.68852188 C282.9637189 150.74647449 278.88874557 154.8121308 274.81658745 158.88067627 C273.14504256 160.54819799 271.47090881 162.21312918 269.79402161 163.87527847 C267.50670923 166.14320802 265.22881265 168.42019781 262.95301819 170.69967651 C262.28609595 171.35649599 261.61917371 172.01331547 260.9320417 172.69003856 C256.9633225 176.68955209 253.52740976 180.45520775 252.66551876 186.24809361 C252.68428853 186.95573825 252.7030583 187.66338289 252.72239685 188.39247131 C252.74260895 189.62616455 252.74260895 189.62616455 252.76322937 190.88478088 C252.79294327 191.76850876 252.82265717 192.65223663 252.85327148 193.56274414 C252.89206175 195.52197578 252.93074812 197.48120949 252.96934509 199.44044495 C253.00817464 200.99028171 253.00817464 200.99028171 253.04778862 202.5714283 C253.17332354 208.07493241 253.20822927 213.57938042 253.25976562 219.08398438 C253.33112152 226.07497153 253.42855166 233.06269368 253.62036133 240.05151367 C253.77338179 245.71339235 253.83709423 251.37034201 253.84315681 257.0342083 C253.86160954 259.18150395 253.91217603 261.32879135 253.99664116 263.47450447 C254.61484456 279.75132713 254.61484456 279.75132713 250.28688431 285.12836838 C246.07807877 289.00845066 241.38322753 291.875685 236.38503742 294.6231432 C232.39694302 296.92542779 228.75041118 299.68872353 225.0625 302.4375 C224.23194092 303.03747803 223.40138184 303.63745605 222.5456543 304.25561523 C220.36327118 305.83639032 218.18151189 307.41802282 216 309 C215.21447754 309.5686377 214.42895508 310.13727539 213.61962891 310.72314453 C204.15439488 317.58692383 194.85007009 324.56294681 185.89794922 332.08984375 C181.20502673 336 181.20502673 336 179 336 C179.00056554 334.82827995 179.00056554 334.82827995 179.0011425 333.63288879 C179.00826475 314.61123377 178.98231614 295.58988575 178.9197216 276.56832886 C178.89024554 267.36954832 178.87189446 258.17099856 178.87988281 248.97216797 C178.88681845 240.95288034 178.87272798 232.93394995 178.83356392 224.9147501 C178.81356276 220.66992899 178.80397243 216.42566861 178.81957626 212.18081665 C178.83394466 208.18156961 178.8201028 204.18339198 178.78504753 200.1842823 C178.77710882 198.72023483 178.77929015 197.25609025 178.79260826 195.79208183 C178.9065663 185.38347584 178.9065663 185.38347584 173.7687664 176.72880173 C172.89322703 175.87304487 172.89322703 175.87304487 172 175 C171.42822588 174.38751026 170.85645176 173.77502052 170.26735115 173.14397049 C168.39356865 171.16216064 166.46930722 169.24404058 164.52587891 167.33056641 C163.80323853 166.61084656 163.08059814 165.89112671 162.33605957 165.14959717 C160.77998074 163.60108065 159.22159739 162.05487704 157.66112137 160.51079178 C155.19428383 158.06961966 152.7338703 155.62213232 150.2749939 153.17294312 C145.06393006 147.98464534 139.84501871 142.80428598 134.625 137.625 C128.5543475 131.60151005 122.48693377 125.57483091 116.42783737 119.53971481 C113.9987816 117.12366265 111.56380325 114.71368735 109.12857056 112.30386353 C107.6513392 110.83389168 106.1743848 109.36364143 104.69775391 107.89306641 C104.01522552 107.22087067 103.33269714 106.54867493 102.62948608 105.85610962 C102.01550964 105.24227417 101.4015332 104.62843872 100.76895142 103.9960022 C100.23104288 103.46253489 99.69313435 102.92906757 99.13892555 102.37943459 C98 101 98 101 98 99 C96.515 98.505 96.515 98.505 95 98 C93.48771572 96.46715355 93.48771572 96.46715355 91.86705017 94.49716187 C87.85034068 89.76760907 83.53146246 85.41247689 79.12719727 81.04541016 C78.26786087 80.18914032 77.40852448 79.33287048 76.52314758 78.45065308 C74.19059846 76.12706308 71.85588697 73.80567051 69.5204823 71.4849515 C67.07039415 69.04865836 64.62401265 66.60865039 62.17747498 64.16879272 C53.8614271 55.87679715 45.53933608 47.59088169 37.21313477 39.30908203 C32.60183166 34.72229156 27.99410224 30.13194125 23.39020771 25.53771436 C20.47982277 22.63387798 17.56498645 19.73460809 14.64679444 16.83861852 C12.41622455 14.62248105 10.19213084 12.39986023 7.96704102 10.17822266 C7.15517334 9.37511658 6.34330566 8.5720105 5.50683594 7.74456787 C4.41134178 6.64711746 4.41134178 6.64711746 3.29371643 5.52749634 C2.33394063 4.57243415 2.33394063 4.57243415 1.35477543 3.59807777 C0 2 0 2 0 0 Z " fill="#FEFDFD" transform="translate(297,536)"/>
<path d="M0 0 C9.74819462 6.09617419 17.92009438 14.89311896 21.2109375 26.09765625 C23.47456667 38.5476167 21.21959808 49.71712513 14.46484375 60.2890625 C7.9102495 69.05242593 -1.43591808 75.0063956 -12.3203125 76.67578125 C-23.45552171 77.59867223 -34.10705833 76.16886726 -43.2578125 69.36328125 C-52.52488551 61.38613049 -58.4164341 52.31715084 -59.578125 39.92578125 C-60.02083149 28.59249516 -56.6036548 18.4023665 -49.3203125 9.67578125 C-36.70908637 -3.51106101 -16.74346499 -8.23259012 0 0 Z " fill="#FEFDFD" transform="translate(609.3203125,313.32421875)"/>
<path d="M0 0 C6.94936587 4.55371553 12.12073945 9.62556411 16 17 C16.50853516 17.9590625 16.50853516 17.9590625 17.02734375 18.9375 C20.84986282 27.95653116 20.45152128 40.7912536 17.5 50 C12.79344859 60.75075428 4.79662185 68.00818202 -5.75 72.8125 C-15.67509299 76.43897629 -26.72583826 76.35118981 -36.47265625 72.2578125 C-48.36997799 66.33673429 -55.323377 58.44522814 -60 46 C-62.76429392 37.49583464 -61.83411331 26.74540361 -58.38671875 18.62890625 C-53.85339308 10.03474238 -48.65821114 3.54081563 -40 -1 C-39.28714844 -1.41121094 -38.57429688 -1.82242187 -37.83984375 -2.24609375 C-26.21187863 -8.01021368 -10.89850386 -6.54545713 0 0 Z " fill="#FEFDFD" transform="translate(455,315)"/>
<path d="M0 0 C2.21320031 1.23527459 4.00995833 2.45890482 6 4 C25.25033661 18.86500029 45.51854263 25.41934773 69.6875 25.3125 C70.34985657 25.31034485 71.01221313 25.3081897 71.69464111 25.30596924 C97.62813974 25.17058509 119.18090773 17.76776575 139 1 C142.06429776 -0.53214888 144.6165642 -0.22938548 148 0 C151.45645946 1.41400614 152.76662994 2.65772391 154.875 5.75 C156.28615768 9.82667774 156.23461131 11.86042089 155 16 C146.90137131 30.24697538 123.99015156 39.32727588 109.1328125 43.90234375 C85.06098857 50.49470082 60.1865069 51.62949975 36 45 C35.32582031 44.81808105 34.65164063 44.63616211 33.95703125 44.44873047 C17.70583652 39.91153314 -3.44656044 30.77810164 -14 17 C-15.33541042 13.10955576 -15.45291746 10.01906429 -13.75 6.1875 C-9.69237996 1.11547495 -6.74430127 -0.66120601 0 0 Z " fill="#030302" transform="translate(442,430)"/>
<path d="M0 0 C8.02490813 5.94437639 13.42813642 14.87561181 15.3203125 24.71875 C16.53002525 37.70828854 13.0943598 48.15080903 5.41796875 58.57421875 C3.15823921 60.88444504 1.37935397 61.76645709 -1.6796875 62.71875 C-1.91921143 61.91377075 -1.91921143 61.91377075 -2.16357422 61.0925293 C-9.68340198 36.24015816 -21.61946156 16.20248467 -38.6796875 -3.28125 C-37.6796875 -5.28125 -37.6796875 -5.28125 -34.9296875 -6.40625 C-22.52115336 -9.59119203 -10.57544482 -6.76298038 0 0 Z " fill="#FCFCFC" transform="translate(727.6796875,284.28125)"/>
<path d="M0 0 C-5.20197044 7.05418719 -5.20197044 7.05418719 -7.79296875 10.125 C-21.89870636 26.87738117 -30.540159 46.28087865 -37 67 C-44.94326954 60.80424976 -51.18328638 53.14957359 -53 43 C-54.04789581 31.35671319 -52.73784128 21.81663423 -45.8125 12.25 C-34.32823437 -1.37994583 -16.91294445 -8.11821334 0 0 Z " fill="#FCFCFC" transform="translate(336,280)"/>
<path d="M0 0 C4.88295041 2.86873336 8.19146643 6.96139657 11 11.8125 C12.61431932 18.59264113 12.0415858 24.28764556 8.625 30.4375 C5.25355754 35.36184929 1.6578892 39.16152715 -4.375 40.4375 C-12.17978291 41.5193511 -17.77190032 40.62023007 -24.3125 36.14453125 C-29.14531127 32.14464768 -31.24014831 27.52443181 -32.375 21.4375 C-32.59330562 14.718538 -30.7411849 9.54994609 -26.375 4.4375 C-19.06948979 -2.01890486 -9.14038731 -4.13704184 0 0 Z " fill="#FCFCFC" transform="translate(694.375,136.5625)"/>
<path d="M0 0 C0.33 0.99 0.66 1.98 1 3 C-1.97 6.3 -4.94 9.6 -8 13 C-8.66 12.67 -9.32 12.34 -10 12 C-8.52149287 10.18696196 -7.04217625 8.37458402 -5.5625 6.5625 C-4.32693359 5.04849609 -4.32693359 5.04849609 -3.06640625 3.50390625 C-1 1 -1 1 0 0 Z " fill="#F3571D" transform="translate(349,300)"/>
<path d="M0 0 C0.66 0.33 1.32 0.66 2 1 C1.38125 1.2475 0.7625 1.495 0.125 1.75 C-2.35068687 3.20628639 -2.95125002 4.37812506 -4 7 C-4.66 6.67 -5.32 6.34 -6 6 C-5 3 -5 3 -2.5625 1.25 C-1.716875 0.8375 -0.87125 0.425 0 0 Z " fill="#FE3B13" transform="translate(614,382)"/>
</svg>
